# xmcd
#
# Track frame offsets:
#	150
#	21842
#	47345
#	87275
#	106015
#	118790
#	143380
#	173130
#	195405
#	225425
#
# Disc length: 3179 seconds
#
# Revision: 1
# Processed by: cddbd v1.5.2PL0 Copyright (c) Steve Scherf et al.
# Submitted via: audiograbber 1.83.01
#
DISCID=6b0c690a
DTITLE=The Derek Trucks Band - Out of the Madness
DYEAR=1900
DGENRE=Rock
TTITLE0=Young Funk
TTITLE1=Fourty Four
TTITLE2=Kickin´ back
TTITLE3=Look-Ka PyPy
TTITLE4=Alright
TTITLE5=Death Letter
TTITLE6=Pleasant Gardens
TTITLE7=Spillway
TTITLE8=Ain´t that lovin´ you
TTITLE9=Deltaraga
EXTD=
EXTT0=
EXTT1=
EXTT2=
EXTT3=
EXTT4=
EXTT5=
EXTT6=
EXTT7=
EXTT8=
EXTT9=
PLAYORDER=
